# xmcd
#
# Track frame offsets:
#	150
#	16973
#	27370
#	49585
#	77613
#	90812
#	104271
#	126218
#	142336
#	158428
#	187107
#	209578
#	222331
#	235410
#	246337
#	263041
#	279539
#	294077
#	307298
#	317727
#	329881
#	347324
#
# Disc length: 4799 seconds
#
# Revision: 0
# Processed by: cddbd v1.5.2PL0 Copyright (c) Steve Scherf et al.
# Submitted via: audiograbber 1.83.01
#
DISCID=4712bd16
DTITLE=Zoot Money's Big Roll Band - ZOOT MONEY'S BIG ROLL BAND - It Should've B
DTITLE=een Me
DYEAR=1965
DGENRE=Blues
TTITLE0=I'll Go Crazy
TTITLE1=Jump Back
TTITLE2=Alone Came John
TTITLE3=Back Door Blues
TTITLE4=It Should've Been Me
TTITLE5=Sweet Little Rock And Roller
TTITLE6=My Wife Can't Cook
TTITLE7=Rags And Old Iron
TTITLE8=The Cat
TTITLE9=Feelin' Sad
TTITLE10=Bright Lights Big City
TTITLE11=Fina
TTITLE12=Uncle Willie
TTITLE13=Good
TTITLE14=Bring It Home To Me
TTITLE15=Please Stay
TTITLE16=You Know You'll Cry
TTITLE17=Something Is Worrying Me
TTITLE18=Stubborn Kind Of Fellow
TTITLE19=Big Time Operator
TTITLE20=Zoot's Sermon
TTITLE21=It Should've Been Me (Alternate Take)
EXTD=
EXTT0=
EXTT1=
EXTT2=
EXTT3=
EXTT4=
EXTT5=
EXTT6=
EXTT7=
EXTT8=
EXTT9=
EXTT10=
EXTT11=
EXTT12=
EXTT13=
EXTT14=
EXTT15=
EXTT16=
EXTT17=
EXTT18=
EXTT19=
EXTT20=
EXTT21=
PLAYORDER=
